<svg id="visual" viewBox="0 0 900 100" width="100%" xmlns="http://www.w3.org/2000/svg" xmlns:xlink="http://www.w3.org/1999/xlink" version="1.1"><path d="M0 81L13.7 73C27.3 65 54.7 49 82 42C109.3 35 136.7 37 163.8 46C191 55 218 71 245.2 69.2C272.3 67.3 299.7 47.7 327 46C354.3 44.3 381.7 60.7 409 58.2C436.3 55.7 463.7 34.3 491 33.7C518.3 33 545.7 53 573 65C600.3 77 627.7 81 654.8 71.3C682 61.7 709 38.3 736.2 38.5C763.3 38.7 790.7 62.3 818 68.3C845.3 74.3 872.7 62.7 886.3 56.8L900 51L900 101L886.3 101C872.7 101 845.3 101 818 101C790.7 101 763.3 101 736.2 101C709 101 682 101 654.8 101C627.7 101 600.3 101 573 101C545.7 101 518.3 101 491 101C463.7 101 436.3 101 409 101C381.7 101 354.3 101 327 101C299.7 101 272.3 101 245.2 101C218 101 191 101 163.8 101C136.7 101 109.3 101 82 101C54.7 101 27.3 101 13.7 101L0 101Z" fill="#000000" stroke-linecap="round" stroke-linejoin="miter"></path></svg>